solid cylinder
  facet normal -0.130526 0.000000 -0.991445
    outer loop
      vertex -0.000000 -5.000000 -2.000000
      vertex -0.517638 -5.000000 -1.931852
      vertex -0.000000 5.000000 -2.000000
    endloop
  endfacet
  facet normal 0.130526 0.000000 -0.991445
    outer loop
      vertex -0.000000 -5.000000 -2.000000
      vertex -0.000000 5.000000 -2.000000
      vertex 0.517638 5.000000 -1.931852
    endloop
  endfacet
  facet normal 0.130526 0.000000 -0.991445
    outer loop
      vertex 0.517638 -5.000000 -1.931852
      vertex -0.000000 -5.000000 -2.000000
      vertex 0.517638 5.000000 -1.931852
    endloop
  endfacet
  facet normal 0.382683 0.000000 -0.923880
    outer loop
      vertex 1.000000 -5.000000 -1.732051
      vertex 0.517638 -5.000000 -1.931852
      vertex 0.517638 5.000000 -1.931852
    endloop
  endfacet
  facet normal 0.991445 -0.000000 0.130526
    outer loop
      vertex 1.931852 -5.000000 0.517638
      vertex 2.000000 5.000000 -0.000000
      vertex 1.931852 5.000000 0.517638
    endloop
  endfacet
  facet normal 0.382683 0.000000 -0.923880
    outer loop
      vertex 1.000000 -5.000000 -1.732051
      vertex 0.517638 5.000000 -1.931852
      vertex 1.000000 5.000000 -1.732051
    endloop
  endfacet
  facet normal 0.608761 0.000000 -0.793353
    outer loop
      vertex 1.000000 -5.000000 -1.732051
      vertex 1.000000 5.000000 -1.732051
      vertex 1.414214 5.000000 -1.414214
    endloop
  endfacet
  facet normal 0.991445 0.000000 0.130526
    outer loop
      vertex 1.931852 -5.000000 0.517638
      vertex 2.000000 -5.000000 -0.000000
      vertex 2.000000 5.000000 -0.000000
    endloop
  endfacet
  facet normal 0.608761 0.000000 -0.793353
    outer loop
      vertex 1.414214 -5.000000 -1.414214
      vertex 1.000000 -5.000000 -1.732051
      vertex 1.414214 5.000000 -1.414214
    endloop
  endfacet
  facet normal 0.923880 -0.000000 0.382683
    outer loop
      vertex 1.732051 -5.000000 1.000000
      vertex 1.931852 5.000000 0.517638
      vertex 1.732051 5.000000 1.000000
    endloop
  endfacet
  facet normal 0.923880 0.000000 0.382683
    outer loop
      vertex 1.732051 -5.000000 1.000000
      vertex 1.931852 -5.000000 0.517638
      vertex 1.931852 5.000000 0.517638
    endloop
  endfacet
  facet normal 0.793353 0.000000 -0.608761
    outer loop
      vertex 1.732051 -5.000000 -1.000000
      vertex 1.414214 -5.000000 -1.414214
      vertex 1.414214 5.000000 -1.414214
    endloop
  endfacet
  facet normal 0.793353 0.000000 -0.608761
    outer loop
      vertex 1.732051 -5.000000 -1.000000
      vertex 1.414214 5.000000 -1.414214
      vertex 1.732051 5.000000 -1.000000
    endloop
  endfacet
  facet normal 0.793353 -0.000000 0.608761
    outer loop
      vertex 1.414214 -5.000000 1.414214
      vertex 1.732051 5.000000 1.000000
      vertex 1.414214 5.000000 1.414214
    endloop
  endfacet
  facet normal 0.923880 0.000000 -0.382683
    outer loop
      vertex 1.732051 -5.000000 -1.000000
      vertex 1.732051 5.000000 -1.000000
      vertex 1.931852 5.000000 -0.517638
    endloop
  endfacet
  facet normal 0.793353 0.000000 0.608761
    outer loop
      vertex 1.414214 -5.000000 1.414214
      vertex 1.732051 -5.000000 1.000000
      vertex 1.732051 5.000000 1.000000
    endloop
  endfacet
  facet normal 0.923880 0.000000 -0.382683
    outer loop
      vertex 1.931852 -5.000000 -0.517638
      vertex 1.732051 -5.000000 -1.000000
      vertex 1.931852 5.000000 -0.517638
    endloop
  endfacet
  facet normal 0.991445 0.000000 -0.130526
    outer loop
      vertex 2.000000 -5.000000 -0.000000
      vertex 1.931852 5.000000 -0.517638
      vertex 2.000000 5.000000 -0.000000
    endloop
  endfacet
  facet normal 0.608761 -0.000000 0.793353
    outer loop
      vertex 1.000000 -5.000000 1.732051
      vertex 1.414214 5.000000 1.414214
      vertex 1.000000 5.000000 1.732051
    endloop
  endfacet
  facet normal 0.991445 0.000000 -0.130526
    outer loop
      vertex 2.000000 -5.000000 -0.000000
      vertex 1.931852 -5.000000 -0.517638
      vertex 1.931852 5.000000 -0.517638
    endloop
  endfacet
  facet normal 0.608761 0.000000 0.793353
    outer loop
      vertex 1.000000 -5.000000 1.732051
      vertex 1.414214 -5.000000 1.414214
      vertex 1.414214 5.000000 1.414214
    endloop
  endfacet
  facet normal 0.382683 -0.000000 0.923880
    outer loop
      vertex 0.517638 -5.000000 1.931852
      vertex 1.000000 5.000000 1.732051
      vertex 0.517638 5.000000 1.931852
    endloop
  endfacet
  facet normal 0.382683 0.000000 0.923880
    outer loop
      vertex 0.517638 -5.000000 1.931852
      vertex 1.000000 -5.000000 1.732051
      vertex 1.000000 5.000000 1.732051
    endloop
  endfacet
  facet normal 0.130526 -0.000000 0.991445
    outer loop
      vertex 0.000000 -5.000000 2.000000
      vertex 0.517638 5.000000 1.931852
      vertex 0.000000 5.000000 2.000000
    endloop
  endfacet
  facet normal 0.130526 0.000000 0.991445
    outer loop
      vertex 0.000000 -5.000000 2.000000
      vertex 0.517638 -5.000000 1.931852
      vertex 0.517638 5.000000 1.931852
    endloop
  endfacet
  facet normal -0.130526 0.000000 0.991445
    outer loop
      vertex -0.517638 -5.000000 1.931852
      vertex 0.000000 5.000000 2.000000
      vertex -0.517638 5.000000 1.931852
    endloop
  endfacet
  facet normal -0.130526 0.000000 0.991445
    outer loop
      vertex -0.517638 -5.000000 1.931852
      vertex 0.000000 -5.000000 2.000000
      vertex 0.000000 5.000000 2.000000
    endloop
  endfacet
  facet normal -0.382683 0.000000 0.923880
    outer loop
      vertex -1.000000 -5.000000 1.732051
      vertex -0.517638 5.000000 1.931852
      vertex -1.000000 5.000000 1.732051
    endloop
  endfacet
  facet normal -0.382683 0.000000 0.923880
    outer loop
      vertex -1.000000 -5.000000 1.732051
      vertex -0.517638 -5.000000 1.931852
      vertex -0.517638 5.000000 1.931852
    endloop
  endfacet
  facet normal -0.608761 0.000000 0.793353
    outer loop
      vertex -1.414214 -5.000000 1.414214
      vertex -1.000000 5.000000 1.732051
      vertex -1.414214 5.000000 1.414214
    endloop
  endfacet
  facet normal -0.608761 0.000000 0.793353
    outer loop
      vertex -1.414214 -5.000000 1.414214
      vertex -1.000000 -5.000000 1.732051
      vertex -1.000000 5.000000 1.732051
    endloop
  endfacet
  facet normal -0.793353 0.000000 0.608761
    outer loop
      vertex -1.732051 -5.000000 1.000000
      vertex -1.414214 5.000000 1.414214
      vertex -1.732051 5.000000 1.000000
    endloop
  endfacet
  facet normal -0.793353 0.000000 0.608761
    outer loop
      vertex -1.732051 -5.000000 1.000000
      vertex -1.414214 -5.000000 1.414214
      vertex -1.414214 5.000000 1.414214
    endloop
  endfacet
  facet normal -0.923880 0.000000 0.382683
    outer loop
      vertex -1.931852 -5.000000 0.517638
      vertex -1.732051 5.000000 1.000000
      vertex -1.931852 5.000000 0.517638
    endloop
  endfacet
  facet normal -0.923880 0.000000 0.382683
    outer loop
      vertex -1.931852 -5.000000 0.517638
      vertex -1.732051 -5.000000 1.000000
      vertex -1.732051 5.000000 1.000000
    endloop
  endfacet
  facet normal -0.991445 0.000000 0.130526
    outer loop
      vertex -2.000000 -5.000000 -0.000000
      vertex -1.931852 -5.000000 0.517638
      vertex -1.931852 5.000000 0.517638
    endloop
  endfacet
  facet normal -0.991445 -0.000000 0.130526
    outer loop
      vertex -2.000000 -5.000000 -0.000000
      vertex -1.931852 5.000000 0.517638
      vertex -2.000000 5.000000 -0.000000
    endloop
  endfacet
  facet normal -0.991445 0.000000 -0.130526
    outer loop
      vertex -1.931852 -5.000000 -0.517638
      vertex -2.000000 -5.000000 -0.000000
      vertex -2.000000 5.000000 -0.000000
    endloop
  endfacet
  facet normal -0.991445 0.000000 -0.130526
    outer loop
      vertex -1.931852 -5.000000 -0.517638
      vertex -2.000000 5.000000 -0.000000
      vertex -1.931852 5.000000 -0.517638
    endloop
  endfacet
  facet normal -0.923880 0.000000 -0.382683
    outer loop
      vertex -1.732051 -5.000000 -1.000000
      vertex -1.931852 -5.000000 -0.517638
      vertex -1.931852 5.000000 -0.517638
    endloop
  endfacet
  facet normal -0.923880 0.000000 -0.382683
    outer loop
      vertex -1.732051 -5.000000 -1.000000
      vertex -1.931852 5.000000 -0.517638
      vertex -1.732051 5.000000 -1.000000
    endloop
  endfacet
  facet normal -0.793353 0.000000 -0.608761
    outer loop
      vertex -1.414214 -5.000000 -1.414214
      vertex -1.732051 -5.000000 -1.000000
      vertex -1.732051 5.000000 -1.000000
    endloop
  endfacet
  facet normal -0.793353 0.000000 -0.608761
    outer loop
      vertex -1.414214 -5.000000 -1.414214
      vertex -1.732051 5.000000 -1.000000
      vertex -1.414214 5.000000 -1.414214
    endloop
  endfacet
  facet normal -0.608761 0.000000 -0.793353
    outer loop
      vertex -1.414214 -5.000000 -1.414214
      vertex -1.414214 5.000000 -1.414214
      vertex -1.000000 5.000000 -1.732051
    endloop
  endfacet
  facet normal -0.608761 0.000000 -0.793353
    outer loop
      vertex -1.000000 -5.000000 -1.732051
      vertex -1.414214 -5.000000 -1.414214
      vertex -1.000000 5.000000 -1.732051
    endloop
  endfacet
  facet normal -0.382683 0.000000 -0.923880
    outer loop
      vertex -0.517638 -5.000000 -1.931852
      vertex -1.000000 -5.000000 -1.732051
      vertex -1.000000 5.000000 -1.732051
    endloop
  endfacet
  facet normal -0.382683 0.000000 -0.923880
    outer loop
      vertex -0.517638 -5.000000 -1.931852
      vertex -1.000000 5.000000 -1.732051
      vertex -0.517638 5.000000 -1.931852
    endloop
  endfacet
  facet normal -0.130526 0.000000 -0.991445
    outer loop
      vertex -0.517638 -5.000000 -1.931852
      vertex -0.517638 5.000000 -1.931852
      vertex -0.000000 5.000000 -2.000000
    endloop
  endfacet
  facet normal 0.000000 -1.000000 0.000000
    outer loop
      vertex -1.414214 -5.000000 1.414214
      vertex -1.732051 -5.000000 1.000000
      vertex -1.931852 -5.000000 0.517638
    endloop
  endfacet
  facet normal 0.000000 -1.000000 0.000000
    outer loop
      vertex -1.414214 -5.000000 1.414214
      vertex -1.931852 -5.000000 0.517638
      vertex -2.000000 -5.000000 -0.000000
    endloop
  endfacet
  facet normal 0.000000 -1.000000 0.000000
    outer loop
      vertex -1.414214 -5.000000 1.414214
      vertex -2.000000 -5.000000 -0.000000
      vertex -1.931852 -5.000000 -0.517638
    endloop
  endfacet
  facet normal 0.000000 -1.000000 0.000000
    outer loop
      vertex 1.931852 -5.000000 0.517638
      vertex -0.517638 -5.000000 -1.931852
      vertex -0.000000 -5.000000 -2.000000
    endloop
  endfacet
  facet normal 0.000000 -1.000000 0.000000
    outer loop
      vertex 1.931852 -5.000000 0.517638
      vertex -0.000000 -5.000000 -2.000000
      vertex 0.517638 -5.000000 -1.931852
    endloop
  endfacet
  facet normal 0.000000 -1.000000 0.000000
    outer loop
      vertex 1.931852 -5.000000 0.517638
      vertex 0.517638 -5.000000 -1.931852
      vertex 1.000000 -5.000000 -1.732051
    endloop
  endfacet
  facet normal 0.000000 -1.000000 0.000000
    outer loop
      vertex 1.931852 -5.000000 0.517638
      vertex 1.000000 -5.000000 -1.732051
      vertex 1.414214 -5.000000 -1.414214
    endloop
  endfacet
  facet normal 0.000000 -1.000000 0.000000
    outer loop
      vertex 1.931852 -5.000000 0.517638
      vertex 1.414214 -5.000000 -1.414214
      vertex 1.732051 -5.000000 -1.000000
    endloop
  endfacet
  facet normal 0.000000 -1.000000 -0.000000
    outer loop
      vertex 1.931852 -5.000000 0.517638
      vertex 1.732051 -5.000000 -1.000000
      vertex 1.931852 -5.000000 -0.517638
    endloop
  endfacet
  facet normal 0.000000 -1.000000 0.000000
    outer loop
      vertex 1.931852 -5.000000 0.517638
      vertex 1.931852 -5.000000 -0.517638
      vertex 2.000000 -5.000000 -0.000000
    endloop
  endfacet
  facet normal 0.000000 -1.000000 0.000000
    outer loop
      vertex 1.000000 -5.000000 1.732051
      vertex 0.517638 -5.000000 1.931852
      vertex 0.000000 -5.000000 2.000000
    endloop
  endfacet
  facet normal 0.000000 -1.000000 0.000000
    outer loop
      vertex 1.000000 -5.000000 1.732051
      vertex 0.000000 -5.000000 2.000000
      vertex -0.517638 -5.000000 1.931852
    endloop
  endfacet
  facet normal 0.000000 -1.000000 0.000000
    outer loop
      vertex 1.000000 -5.000000 1.732051
      vertex -0.517638 -5.000000 1.931852
      vertex -1.000000 -5.000000 1.732051
    endloop
  endfacet
  facet normal -0.000000 -1.000000 0.000000
    outer loop
      vertex 1.000000 -5.000000 1.732051
      vertex -1.000000 -5.000000 1.732051
      vertex -1.414214 -5.000000 1.414214
    endloop
  endfacet
  facet normal 0.000000 -1.000000 0.000000
    outer loop
      vertex 1.414214 -5.000000 1.414214
      vertex 1.931852 -5.000000 0.517638
      vertex 1.732051 -5.000000 1.000000
    endloop
  endfacet
  facet normal 0.000000 -1.000000 0.000000
    outer loop
      vertex 1.414214 -5.000000 1.414214
      vertex -1.931852 -5.000000 -0.517638
      vertex -1.732051 -5.000000 -1.000000
    endloop
  endfacet
  facet normal 0.000000 -1.000000 0.000000
    outer loop
      vertex 1.414214 -5.000000 1.414214
      vertex -1.732051 -5.000000 -1.000000
      vertex -1.414214 -5.000000 -1.414214
    endloop
  endfacet
  facet normal 0.000000 -1.000000 0.000000
    outer loop
      vertex 1.414214 -5.000000 1.414214
      vertex -1.414214 -5.000000 -1.414214
      vertex -1.000000 -5.000000 -1.732051
    endloop
  endfacet
  facet normal 0.000000 -1.000000 0.000000
    outer loop
      vertex 1.414214 -5.000000 1.414214
      vertex -1.000000 -5.000000 -1.732051
      vertex -0.517638 -5.000000 -1.931852
    endloop
  endfacet
  facet normal -0.000000 -1.000000 0.000000
    outer loop
      vertex 1.414214 -5.000000 1.414214
      vertex -1.414214 -5.000000 1.414214
      vertex -1.931852 -5.000000 -0.517638
    endloop
  endfacet
  facet normal 0.000000 -1.000000 -0.000000
    outer loop
      vertex 1.414214 -5.000000 1.414214
      vertex -0.517638 -5.000000 -1.931852
      vertex 1.931852 -5.000000 0.517638
    endloop
  endfacet
  facet normal 0.000000 -1.000000 0.000000
    outer loop
      vertex 1.414214 -5.000000 1.414214
      vertex 1.000000 -5.000000 1.732051
      vertex -1.414214 -5.000000 1.414214
    endloop
  endfacet
  facet normal -0.000000 1.000000 0.000000
    outer loop
      vertex -1.732051 5.000000 1.000000
      vertex -1.414214 5.000000 1.414214
      vertex -1.931852 5.000000 0.517638
    endloop
  endfacet
  facet normal -0.000000 1.000000 0.000000
    outer loop
      vertex -1.931852 5.000000 0.517638
      vertex -1.414214 5.000000 1.414214
      vertex -2.000000 5.000000 -0.000000
    endloop
  endfacet
  facet normal -0.000000 1.000000 0.000000
    outer loop
      vertex -2.000000 5.000000 -0.000000
      vertex -1.414214 5.000000 1.414214
      vertex -1.931852 5.000000 -0.517638
    endloop
  endfacet
  facet normal -0.000000 1.000000 0.000000
    outer loop
      vertex -0.517638 5.000000 -1.931852
      vertex 1.931852 5.000000 0.517638
      vertex -0.000000 5.000000 -2.000000
    endloop
  endfacet
  facet normal 0.000000 1.000000 0.000000
    outer loop
      vertex -0.000000 5.000000 -2.000000
      vertex 1.931852 5.000000 0.517638
      vertex 0.517638 5.000000 -1.931852
    endloop
  endfacet
  facet normal 0.000000 1.000000 0.000000
    outer loop
      vertex 0.517638 5.000000 -1.931852
      vertex 1.931852 5.000000 0.517638
      vertex 1.000000 5.000000 -1.732051
    endloop
  endfacet
  facet normal 0.000000 1.000000 0.000000
    outer loop
      vertex 1.000000 5.000000 -1.732051
      vertex 1.931852 5.000000 0.517638
      vertex 1.414214 5.000000 -1.414214
    endloop
  endfacet
  facet normal 0.000000 1.000000 0.000000
    outer loop
      vertex 1.414214 5.000000 -1.414214
      vertex 1.931852 5.000000 0.517638
      vertex 1.732051 5.000000 -1.000000
    endloop
  endfacet
  facet normal 0.000000 1.000000 0.000000
    outer loop
      vertex 1.732051 5.000000 -1.000000
      vertex 1.931852 5.000000 0.517638
      vertex 1.931852 5.000000 -0.517638
    endloop
  endfacet
  facet normal 0.000000 1.000000 0.000000
    outer loop
      vertex 1.931852 5.000000 -0.517638
      vertex 1.931852 5.000000 0.517638
      vertex 2.000000 5.000000 -0.000000
    endloop
  endfacet
  facet normal 0.000000 1.000000 0.000000
    outer loop
      vertex 0.517638 5.000000 1.931852
      vertex 1.000000 5.000000 1.732051
      vertex 0.000000 5.000000 2.000000
    endloop
  endfacet
  facet normal 0.000000 1.000000 0.000000
    outer loop
      vertex 0.000000 5.000000 2.000000
      vertex 1.000000 5.000000 1.732051
      vertex -0.517638 5.000000 1.931852
    endloop
  endfacet
  facet normal 0.000000 1.000000 0.000000
    outer loop
      vertex -0.517638 5.000000 1.931852
      vertex 1.000000 5.000000 1.732051
      vertex -1.000000 5.000000 1.732051
    endloop
  endfacet
  facet normal -0.000000 1.000000 0.000000
    outer loop
      vertex -1.000000 5.000000 1.732051
      vertex 1.000000 5.000000 1.732051
      vertex -1.414214 5.000000 1.414214
    endloop
  endfacet
  facet normal 0.000000 1.000000 0.000000
    outer loop
      vertex 1.931852 5.000000 0.517638
      vertex 1.414214 5.000000 1.414214
      vertex 1.732051 5.000000 1.000000
    endloop
  endfacet
  facet normal -0.000000 1.000000 0.000000
    outer loop
      vertex -1.931852 5.000000 -0.517638
      vertex 1.414214 5.000000 1.414214
      vertex -1.732051 5.000000 -1.000000
    endloop
  endfacet
  facet normal -0.000000 1.000000 0.000000
    outer loop
      vertex -1.732051 5.000000 -1.000000
      vertex 1.414214 5.000000 1.414214
      vertex -1.414214 5.000000 -1.414214
    endloop
  endfacet
  facet normal -0.000000 1.000000 0.000000
    outer loop
      vertex -1.414214 5.000000 -1.414214
      vertex 1.414214 5.000000 1.414214
      vertex -1.000000 5.000000 -1.732051
    endloop
  endfacet
  facet normal -0.000000 1.000000 0.000000
    outer loop
      vertex -1.000000 5.000000 -1.732051
      vertex 1.414214 5.000000 1.414214
      vertex -0.517638 5.000000 -1.931852
    endloop
  endfacet
  facet normal -0.000000 1.000000 0.000000
    outer loop
      vertex -1.414214 5.000000 1.414214
      vertex 1.414214 5.000000 1.414214
      vertex -1.931852 5.000000 -0.517638
    endloop
  endfacet
  facet normal 0.000000 1.000000 0.000000
    outer loop
      vertex -0.517638 5.000000 -1.931852
      vertex 1.414214 5.000000 1.414214
      vertex 1.931852 5.000000 0.517638
    endloop
  endfacet
  facet normal 0.000000 1.000000 0.000000
    outer loop
      vertex 1.000000 5.000000 1.732051
      vertex 1.414214 5.000000 1.414214
      vertex -1.414214 5.000000 1.414214
    endloop
  endfacet
endsolid Mesh
